[b] º   Poster.    º 


[img]http://www.imdb.com/media/rm3544235008/tt1598778[/img]


 º     Plot.     º
 

Soon after her return from a business trip to Hong Kong, Beth Emhoff dies from what is a 
flu or some other type of infection. Her young son dies a few days later. Her husband 
Mitch however seems immune. Thus begins the spread of a deadly infection. For doctors 
and administrators at the U.S. Centers for Disease Control, several days pass before 
anyone realizes the extent or gravity of this new infection. They must first identify 
the type of virus in question and then find a means of combating it, a process that 
will likely take several months. As the contagion spreads to millions of people worldwide
, societal order begins to break down as people panic.  Written by garykmcd 


 
 º   General.    º
 


Complete name                : Contagion.2011.[English].[DvDRip].Xvid - {RedDragon}.avi
Format                       : MPEG-4
Format profile               : Base Media / Version 2
Codec ID                     : mp42
File size                    : 700 MiB
Duration                     : 1h 46mn
Overall bit rate             : 919 Kbps
Encoded date                 : UTC 2011-12-22 04:43:14
Tagged date                  : UTC 2011-12-22 04:51:10
Language                     : English
IMDb                         : http://www.imdb.com/title/tt1598778/
IMDb Rating                  : 6.9/10


 º  SCREEN SHOTS  º


[IMG]http://imagestorage.org/images/61654373382016417186.jpg[/IMG]

[IMG]http://imagestorage.org/images/40688792524312976565.jpg[/IMG]

[IMG]http://imagestorage.org/images/21026606519490950276.jpg[/IMG]

[IMG]http://imagestorage.org/images/11601459850409482225.jpg[/IMG]

[IMG]http://imagestorage.org/images/52229052498752524147.jpg[/IMG]

 
 º    Video.     º
 


ID                               : 1
Format                           : MPEG-4 Visual
Format profile                   : Simple@L1
Format settings, BVOP            : No
Format settings, QPel            : No
Format settings, GMC             : No warppoints
Format settings, Matrix          : Default (H.263)
Codec ID                         : 20
Duration                         : 1h 46mn
Bit rate mode                    : Variable
Bit rate                         : 756 Kbps
Maximum bit rate                 : 1 383 Mbps
Width                            : 624 pixels
Height                           : 352 pixels
Display aspect ratio             : 16:9
Frame rate mode                  : Variable
Frame rate                       : 23.976 fps
Minimum frame rate               : 23.974 fps
Maximum frame rate               : 357.143 fps
Color space                      : YUV
Chroma subsampling               : 4:2:0
Bit depth                        : 8 bits
Scan type                        : Progressive
Bits/(Pixel*Frame)               : 0.144
Stream size                      : 575 MiB (82%)
Writing library                  : Lavc52.94.3
Encoded date                     : UTC 2011-12-22 04:43:14
Tagged date                      : UTC 2011-12-22 04:51:10

 

 
 º    Audio.     º
 


ID                               : 2
Format                           : AAC
Format/Info                      : Advanced Audio Codec
Format version                   : Version 4
Format profile                   : LC
Format settings, SBR             : No
Codec ID                         : 40
Duration                         : 1h 46mn
Bit rate mode                    : Variable
Bit rate                         : 160 Kbps
Maximum bit rate                 : 299 Kbps
Channel(s)                       : 2 channels
Channel positions                : Front: L R
Sampling rate                    : 48.0 KHz
Stream size                      : 122 MiB (17%)
Encoded date                     : UTC 2011-12-22 04:43:14
Tagged date                      : UTC 2011-12-22 04:51:09[/b]

